<svg xmlns="http://www.w3.org/2000/svg" viewBox="0 0 68.18555 13.52637">
  <defs>
    <style>
      .a, .b {
        isolation: isolate;
      }

      .b {
        font-size: 12px;
        fill: #fff;
        font-family: TrebuchetMS-Bold, Trebuchet MS;
        font-weight: 700;
      }

      .c {
        fill: #f15a24;
      }

      .d {
        fill: none;
        stroke: #f15a24;
        stroke-miterlimit: 10;
        stroke-width: 0.25px;
      }
    </style>
  </defs>
  <g class="a">
    <text class="b" transform="translate(0 10.29199)"><tspan xml:space="preserve">H  meschool</tspan></text>
  </g>
  <path class="c" d="M10.69458,4.276a.77969.77969,0,1,1-.77969.77969.77968.77968,0,0,1,.77969-.77969m0-.21265a.99234.99234,0,1,0,.99233.99234A.99234.99234,0,0,0,10.69458,4.06335Z"/>
  <path class="c" d="M12.821,4.276a.77969.77969,0,1,1-.77969.77969A.77968.77968,0,0,1,12.821,4.276m0-.21265a.99234.99234,0,1,0,.99233.99234A.99234.99234,0,0,0,12.821,4.06335Z"/>
  <line class="d" x1="13.22196" y1="4.65472" x2="12.42004" y2="5.45665"/>
  <path class="c" d="M10.69458,6.40242a.77969.77969,0,1,1-.77969.77969.77969.77969,0,0,1,.77969-.77969m0-.21264a.99233.99233,0,1,0,.99233.99233A.99233.99233,0,0,0,10.69458,6.18978Z"/>
  <path class="c" d="M12.821,6.40242a.77969.77969,0,1,1-.77969.77969.77969.77969,0,0,1,.77969-.77969m0-.21264a.99233.99233,0,1,0,.99233.99233A.99233.99233,0,0,0,12.821,6.18978Z"/>
  <path class="c" d="M10.69458,8.52885a.77969.77969,0,1,1-.77969.77968.77968.77968,0,0,1,.77969-.77968m0-.21265a.99234.99234,0,1,0,.99233.99233A.99233.99233,0,0,0,10.69458,8.3162Z"/>
  <path class="c" d="M12.821,8.52885a.77969.77969,0,1,1-.77969.77968.77968.77968,0,0,1,.77969-.77968m0-.21265a.99234.99234,0,1,0,.99233.99233A.99233.99233,0,0,0,12.821,8.3162Z"/>
  <line class="d" x1="13.20779" y1="5.45665" x2="12.40586" y2="4.65472"/>
  <line class="d" x1="11.08845" y1="6.75988" x2="10.28653" y2="7.56181"/>
  <line class="d" x1="11.07428" y1="7.56181" x2="10.27235" y2="6.75988"/>
  <line class="d" x1="11.08845" y1="8.88631" x2="10.28653" y2="9.68823"/>
  <line class="d" x1="11.07428" y1="9.68823" x2="10.27235" y2="8.88631"/>
</svg>
