<svg xmlns="http://www.w3.org/2000/svg" viewBox="0 0 4.8489 7.35695">
  <defs>
    <style>
      .a {
        fill: #f15a24;
      }

      .b {
        fill: none;
        stroke: #f15a24;
        stroke-miterlimit: 10;
        stroke-width: 0.25px;
      }
    </style>
  </defs>
  <path class="a" d="M1.22629.30163a.91962.91962,0,1,1-.91962.91961h0a.9196.9196,0,0,1,.9196-.91961h0m0-.25082A1.17043,1.17043,0,1,0,2.39671,1.22126v0A1.17044,1.17044,0,0,0,1.22629.05081Z" transform="translate(-0.05585 -0.05081)"/>
  <path class="a" d="M3.73433.30163a.91962.91962,0,1,1-.91962.91961h0a.9196.9196,0,0,1,.9196-.91961h0m0-.25082A1.17043,1.17043,0,1,0,4.90475,1.22126v0A1.17044,1.17044,0,0,0,3.73433.05081Z" transform="translate(-0.05585 -0.05081)"/>
  <line class="b" x1="4.1514" y1="0.6975" x2="3.20556" y2="1.64335"/>
  <path class="a" d="M1.22629,2.80966a.91962.91962,0,1,1-.91962.91962h0a.91962.91962,0,0,1,.91962-.91962m0-.2508A1.17042,1.17042,0,1,0,2.39671,3.72928h0A1.17043,1.17043,0,0,0,1.22629,2.55886Z" transform="translate(-0.05585 -0.05081)"/>
  <path class="a" d="M3.73433,2.80966a.91962.91962,0,1,1-.91962.91962h0a.91962.91962,0,0,1,.91962-.91962m0-.2508A1.17042,1.17042,0,1,0,4.90475,3.72928h0A1.17043,1.17043,0,0,0,3.73433,2.55886Z" transform="translate(-0.05585 -0.05081)"/>
  <path class="a" d="M1.22629,5.31771a.91962.91962,0,1,1-.91962.91962h0a.91961.91961,0,0,1,.91961-.91961h0m0-.25081A1.17043,1.17043,0,1,0,2.39671,6.23734v0A1.17043,1.17043,0,0,0,1.22629,5.0669Z" transform="translate(-0.05585 -0.05081)"/>
  <path class="a" d="M3.73433,5.31771a.91962.91962,0,1,1-.91962.91962h0a.91961.91961,0,0,1,.91961-.91961h0m0-.25081A1.17043,1.17043,0,1,0,4.90475,6.23734v0A1.17043,1.17043,0,0,0,3.73433,5.0669Z" transform="translate(-0.05585 -0.05081)"/>
  <line class="b" x1="4.13469" y1="1.64335" x2="3.18884" y2="0.6975"/>
  <line class="b" x1="1.635" y1="3.18046" x2="0.68916" y2="4.12631"/>
  <line class="b" x1="1.61829" y1="4.12631" x2="0.67244" y2="3.18046"/>
  <line class="b" x1="1.635" y1="5.68851" x2="0.68916" y2="6.63435"/>
  <line class="b" x1="1.61829" y1="6.63435" x2="0.67244" y2="5.68851"/>
</svg>
